<svg width="24" height="24" viewBox="0 0 24 24" fill="none" xmlns="http://www.w3.org/2000/svg">
    <path fill-rule="evenodd" clip-rule="evenodd" d="M24 12C24 18.6274 18.6274 24 12 24C5.37258 24 0 18.6274 0 12C0 5.37258 5.37258 0 12 0C18.6274 0 24 5.37258 24 12ZM8.66437 11.5859L10.8927 13.5667L15.2318 8.35984C15.5854 7.93556 16.2159 7.87824 16.6402 8.2318C17.0645 8.58537 17.1218 9.21593 16.7682 9.64021L11.7682 15.6402C11.4067 16.0741 10.7578 16.1227 10.3357 15.7474L7.33565 13.0808C6.92286 12.7139 6.88568 12.0818 7.2526 11.669C7.61952 11.2562 8.25159 11.219 8.66437 11.5859Z" fill="url(#paint0_linear)"/>
    <defs>
        <linearGradient id="paint0_linear" x1="12.4269" y1="-12.2134" x2="-12" y2="11.7866" gradientUnits="userSpaceOnUse">
            <stop stop-color="#006DB6"/>
            <stop offset="1" stop-color="#57A9E0"/>
        </linearGradient>
    </defs>
</svg>
