<svg width="24" height="24" viewBox="0 0 24 24" fill="none" xmlns="http://www.w3.org/2000/svg">
    <path fill-rule="evenodd" clip-rule="evenodd" d="M24 12C24 18.6274 18.6274 24 12 24C5.37258 24 0 18.6274 0 12C0 5.37259 5.37258 3.8147e-06 12 3.8147e-06C18.6274 3.8147e-06 24 5.37259 24 12ZM14 17C13.7884 17 13.5799 16.9869 13.3752 16.9613C14.9597 15.8813 16 14.0622 16 12C16 9.93784 14.9597 8.11866 13.3752 7.03866C13.5799 7.01315 13.7884 7 14 7C16.7614 7 19 9.23858 19 12C19 14.7614 16.7614 17 14 17ZM15 12C15 14.7614 12.7614 17 10 17C7.23858 17 5 14.7614 5 12C5 9.23858 7.23858 7 10 7C12.7614 7 15 9.23858 15 12ZM9 9V11H7V13H9V15H11V13H13V11H11V9H9Z" fill="url(#paint0_linear)"/>
    <defs>
        <linearGradient id="paint0_linear" x1="12.4269" y1="-12.2134" x2="-12" y2="11.7866" gradientUnits="userSpaceOnUse">
            <stop stop-color="#006DB6"/>
            <stop offset="1" stop-color="#57A9E0"/>
        </linearGradient>
    </defs>
</svg>
