<svg width="24" height="24" viewBox="0 0 24 24" fill="none" xmlns="http://www.w3.org/2000/svg">
    <path fill-rule="evenodd" clip-rule="evenodd" d="M24 12C24 18.6274 18.6274 24 12 24C5.37258 24 0 18.6274 0 12C0 5.37258 5.37258 0 12 0C18.6274 0 24 5.37258 24 12ZM11.55 6.15001C11.55 6.39841 11.7516 6.60001 12 6.60001C12.2484 6.60001 12.45 6.39841 12.45 6.15001V4.35001C12.45 4.10161 12.2484 3.90001 12 3.90001C11.7516 3.90001 11.55 4.10161 11.55 4.35001V6.15001ZM9.1977 6.95101C9.2763 7.10881 9.4353 7.20001 9.6003 7.20001C9.6681 7.20001 9.7365 7.18501 9.8013 7.15261C10.0239 7.04101 10.1133 6.77101 10.0023 6.54901L9.4023 5.34901C9.2913 5.12641 9.0219 5.03701 8.7987 5.14741C8.5761 5.25901 8.4867 5.52901 8.5977 5.75101L9.1977 6.95101ZM14.1987 7.15261C14.2635 7.18501 14.3319 7.20001 14.3997 7.20001C14.5647 7.20001 14.7237 7.10881 14.8023 6.95101L15.4023 5.75101C15.5133 5.52901 15.4239 5.25901 15.2013 5.14741C14.9793 5.03701 14.7093 5.12641 14.5977 5.34901L13.9977 6.54901C13.8867 6.77101 13.9761 7.04101 14.1987 7.15261ZM7.2 15.45C7.2 15.2016 7.4016 15 7.65 15H12.75C12.9984 15 13.2 15.2016 13.2 15.45C13.2 15.6984 12.9984 15.9 12.75 15.9H7.65C7.4016 15.9 7.2 15.6984 7.2 15.45ZM7.2 13.95C7.2 13.7016 7.4016 13.5 7.65 13.5H10.35C10.5984 13.5 10.8 13.7016 10.8 13.95C10.8 14.1984 10.5984 14.4 10.35 14.4H7.65C7.4016 14.4 7.2 14.1984 7.2 13.95ZM6 12V15.9018C6 16.5636 6.5364 17.1 7.1982 17.1H16.8018C17.4636 17.1 18 16.5636 18 15.9018V12H6ZM18 9.90001C18 9.23761 17.4624 8.70001 16.8 8.70001H7.2C6.5376 8.70001 6 9.23761 6 9.90001V10.5H18V9.90001Z" fill="url(#paint0_linear)"/>
    <defs>
        <linearGradient id="paint0_linear" x1="12.4269" y1="-12.2134" x2="-12" y2="11.7866" gradientUnits="userSpaceOnUse">
            <stop stop-color="#006DB6"/>
            <stop offset="1" stop-color="#57A9E0"/>
        </linearGradient>
    </defs>
</svg>
