<svg width="24" height="24" viewBox="0 0 24 24" fill="none" xmlns="http://www.w3.org/2000/svg">
    <path fill-rule="evenodd" clip-rule="evenodd" d="M24 12C24 18.6274 18.6274 24 12 24C5.37258 24 0 18.6274 0 12C0 5.37258 5.37258 0 12 0C18.6274 0 24 5.37258 24 12ZM13.3 6H10.1V11.1429H9.3C8.85817 11.1429 8.5 11.5266 8.5 12C8.5 12.4734 8.85817 12.8571 9.3 12.8571H10.1V13.7143H9.3C8.85817 13.7143 8.5 14.098 8.5 14.5714C8.5 15.0448 8.85817 15.4286 9.3 15.4286H10.1V17.1429C10.1 17.6162 10.4582 18 10.9 18C11.3418 18 11.7 17.6162 11.7 17.1429V15.4286H13.3143C13.7561 15.4286 14.1143 15.0448 14.1143 14.5714C14.1143 14.098 13.7561 13.7143 13.3143 13.7143H11.7V12.8571H13.3C15.0673 12.8571 16.5 11.3221 16.5 9.42857C16.5 7.53502 15.0673 6 13.3 6ZM13.3 11.1429H11.7V7.71429H13.3C14.1837 7.71429 14.9 8.4818 14.9 9.42857C14.9 10.3753 14.1837 11.1429 13.3 11.1429Z" fill="url(#paint0_linear)"/>
    <defs>
        <linearGradient id="paint0_linear" x1="12.4269" y1="-12.2134" x2="-12" y2="11.7866" gradientUnits="userSpaceOnUse">
            <stop stop-color="#006DB6"/>
            <stop offset="1" stop-color="#57A9E0"/>
        </linearGradient>
    </defs>
</svg>
