<svg width="24" height="24" viewBox="0 0 24 24" fill="none" xmlns="http://www.w3.org/2000/svg">
    <path fill-rule="evenodd" clip-rule="evenodd" d="M24 12C24 18.6274 18.6274 24 12 24C5.37258 24 0 18.6274 0 12C0 5.37258 5.37258 0 12 0C18.6274 0 24 5.37258 24 12ZM17 8.41421V17C17 17.5523 16.5523 18 16 18H8C7.44772 18 7 17.5523 7 17V7C7 6.44771 7.44772 6 8 6H14.5858C14.851 6 15.1054 6.10536 15.2929 6.29289L16.7071 7.70711C16.8946 7.89464 17 8.149 17 8.41421ZM8 13.5C8 13.2239 8.22386 13 8.5 13H12.5C12.7761 13 13 13.2239 13 13.5C13 13.7761 12.7761 14 12.5 14H8.5C8.22386 14 8 13.7761 8 13.5ZM8.5 15C8.22386 15 8 15.2239 8 15.5C8 15.7761 8.22386 16 8.5 16H10.5C10.7761 16 11 15.7761 11 15.5C11 15.2239 10.7761 15 10.5 15H8.5ZM16.5 8.5L14.5 6.5V8.5H16.5Z" fill="url(#paint0document_linear)"/>
    <defs>
        <linearGradient id="paint0document_linear" x1="12.4269" y1="-12.2134" x2="-12" y2="11.7866" gradientUnits="userSpaceOnUse">
            <stop stop-color="#006DB6"/>
            <stop offset="1" stop-color="#57A9E0"/>
        </linearGradient>
    </defs>
</svg>
