<svg width="64" height="64" viewBox="0 0 64 64" fill="none" xmlns="http://www.w3.org/2000/svg">
<path d="M64 32C64 14.3269 49.6731 0 32 0C14.3269 0 0 14.3269 0 32C0 49.6731 14.3269 64 32 64C49.6731 64 64 49.6731 64 32Z" fill="#F5F5F6"/>
<path d="M44 29V23C44 22.014 43.1 21 42 21H20C18.9 21 18 22.014 18 23V41M40 41H14C14 42.28 15.043 44 17 44H40" stroke="#79818C" stroke-width="2" stroke-linecap="round" stroke-linejoin="round"/>
<path d="M47 29H43C41.3431 29 40 30.3431 40 32V42C40 43.6569 41.3431 45 43 45H47C48.6569 45 50 43.6569 50 42V32C50 30.3431 48.6569 29 47 29Z" stroke="#79818C" stroke-width="2"/>
<path d="M44.308 32H45.948" stroke="#79818C" stroke-width="2" stroke-linecap="round"/>
<path d="M40 42H49" stroke="#79818C" stroke-width="2" stroke-linecap="square"/>
</svg>
