<svg width="64" height="64" viewBox="0 0 64 64" fill="none" xmlns="http://www.w3.org/2000/svg">
<g clip-path="url(#clip0)">
<path d="M63.2381 32C63.2381 14.3269 49.0818 0 31.619 0C14.1563 0 0 14.3269 0 32C0 49.6731 14.1563 64 31.619 64C49.0818 64 63.2381 49.6731 63.2381 32Z" fill="#F5F5F6"/>
<path fill-rule="evenodd" clip-rule="evenodd" d="M37.2947 42.395V25.63V42.395ZM22.7262 25H15.8096H22.7262ZM15.8096 43H22.7262V25H43.4762V43H15.8096ZM15.8096 25V41V25ZM15.8096 41V43V41Z" stroke="#79818C" stroke-width="2" stroke-linecap="round" stroke-linejoin="round"/>
<path d="M47.4287 40.997V21H18.7739" stroke="#79818C" stroke-width="2" stroke-linecap="round" stroke-linejoin="round"/>
<path d="M51.727 41.392C51.9536 41.5224 52.1524 41.6968 52.3121 41.9053C52.4718 42.1137 52.5891 42.3521 52.6574 42.6066C52.7257 42.8612 52.7436 43.1269 52.71 43.3884C52.6764 43.65 52.592 43.9023 52.4617 44.1307C52.3314 44.3591 52.1577 44.5592 51.9507 44.7194C51.7436 44.8796 51.5073 44.9968 51.2554 45.0642C51.0034 45.1316 50.7408 45.1479 50.4825 45.1122C50.2243 45.0765 49.9756 44.9894 49.7508 44.856L11.2932 22.386C10.843 22.1189 10.5154 21.6824 10.3821 21.1719C10.2487 20.6613 10.3203 20.118 10.5812 19.6606C10.8421 19.2033 11.2712 18.8689 11.7748 18.7305C12.2784 18.5921 12.8157 18.661 13.2693 18.922L51.726 41.392H51.727Z" fill="#79818C" stroke="#F5F5F6" stroke-width="2"/>
</g>
<defs>
<clipPath id="clip0">
<rect width="63.2381" height="64" fill="white"/>
</clipPath>
</defs>
</svg>
