<svg width="64" height="64" viewBox="0 0 64 64" fill="none" xmlns="http://www.w3.org/2000/svg">
<path d="M64 32C64 14.3269 49.6731 0 32 0C14.3269 0 0 14.3269 0 32C0 49.6731 14.3269 64 32 64C49.6731 64 64 49.6731 64 32Z" fill="#F5F5F6"/>
<path fill-rule="evenodd" clip-rule="evenodd" d="M24 20V46H44V27.633L36.54 20H24Z" stroke="#79818C" stroke-width="2"/>
<path d="M20 41V17C20 16.448 20.377 16 20.842 16H36" stroke="#79818C" stroke-width="2" stroke-linecap="round"/>
<path d="M52.35 41.392C52.5793 41.5224 52.7805 41.6968 52.9421 41.9053C53.1037 42.1137 53.2225 42.3521 53.2916 42.6066C53.3607 42.8612 53.3788 43.1269 53.3448 43.3884C53.3108 43.65 53.2254 43.9023 53.0935 44.1307C52.9617 44.3591 52.7859 44.5592 52.5764 44.7194C52.3668 44.8796 52.1277 44.9968 51.8727 45.0642C51.6177 45.1316 51.3519 45.1479 51.0906 45.1122C50.8292 45.0765 50.5775 44.9894 50.35 44.856L11.429 22.386C10.9734 22.1189 10.6419 21.6824 10.5069 21.1719C10.3719 20.6613 10.4444 20.118 10.7085 19.6606C10.9725 19.2033 11.4068 18.8689 11.9165 18.7305C12.4262 18.5921 12.9699 18.661 13.429 18.922L52.349 41.392H52.35Z" fill="#79818C" stroke="#F5F5F6" stroke-width="2"/>
</svg>
