<svg width="64" height="64" viewBox="0 0 64 64" fill="none" xmlns="http://www.w3.org/2000/svg">
<path d="M64 32C64 14.3269 49.6731 0 32 0C14.3269 0 0 14.3269 0 32C0 49.6731 14.3269 64 32 64C49.6731 64 64 49.6731 64 32Z" fill="#F5F5F6"/>
<path fill-rule="evenodd" clip-rule="evenodd" d="M18 16C18 14.8954 18.8954 14 20 14H44C46.2091 14 48 15.7909 48 18V46C48 48.2091 46.2091 50 44 50H20C18.8954 50 18 49.1046 18 48V16ZM44 16H20V48H44C45.1046 48 46 47.1046 46 46V18C46 16.8954 45.1046 16 44 16Z" fill="#79818C"/>
<path fill-rule="evenodd" clip-rule="evenodd" d="M31 23C30.7013 23 30.4183 23.1335 30.2283 23.364C30.0384 23.5945 29.9614 23.8978 30.0184 24.191L30.4073 26.1897L28.3161 24.4221C28.1828 24.2337 27.984 24.0902 27.7425 24.0298C27.2067 23.8959 26.6638 24.2217 26.5298 24.7575C26.123 26.3848 26.135 27.7199 26.4544 28.8097C26.7766 29.9088 27.391 30.6872 28.0648 31.2233C28.5706 31.6257 29.1023 31.8865 29.5602 32.0557L29.3149 32.5602C29.1355 32.9291 29.1997 33.3702 29.4767 33.6727C29.9074 34.1431 30.6057 34.4454 31.1575 34.6298C31.7525 34.8285 32.412 34.9655 32.9378 34.9971C32.9781 34.9995 33.0186 34.9995 33.059 34.997C33.594 34.9642 34.2048 34.8174 34.7656 34.6184C35.327 34.4192 35.9102 34.1424 36.3727 33.807C36.7655 33.5222 36.8972 32.9965 36.685 32.5602L36.4397 32.0557C36.8976 31.8865 37.4294 31.6257 37.9351 31.2233C38.6089 30.6872 39.2233 29.9088 39.5455 28.8097C39.8635 27.725 39.8768 26.3973 39.4758 24.7802C39.4554 24.6892 39.422 24.6003 39.3755 24.5163C39.3242 24.4232 39.2589 24.3403 39.1832 24.2696C38.9606 24.0609 38.6616 23.9715 38.3735 24.0079C38.2652 24.0216 38.1584 24.0531 38.0578 24.1028C37.9749 24.1436 37.8993 24.1951 37.8324 24.2551L35.5962 26.172L35.9816 24.191C36.0387 23.8978 35.9617 23.5945 35.7717 23.364C35.5817 23.1335 35.2987 23 35 23H31ZM37.779 26.9351L35.6508 28.7593C35.4 28.9743 35.0591 29.0515 34.7401 28.9656C34.4211 28.8798 34.1651 28.6419 34.056 28.33L33.556 26.8996C33.4976 26.7323 33.4846 26.5525 33.5184 26.3786L33.7867 25H32.2134L32.4816 26.3786C32.5155 26.5525 32.5025 26.7323 32.444 26.8996L31.944 28.33C31.8354 28.6407 31.5808 28.8781 31.2633 28.9647C30.9457 29.0514 30.6059 28.9762 30.3545 28.7637L28.2204 26.9599C28.2099 27.4778 28.2724 27.9015 28.3736 28.2471C28.5671 28.907 28.9214 29.349 29.3101 29.6583C29.7096 29.9762 30.1582 30.1624 30.5214 30.268C30.7003 30.32 30.8504 30.3502 30.9514 30.3669C31.0017 30.3752 31.039 30.3801 31.0609 30.3827L31.0814 30.3849C31.0812 30.3849 31.0815 30.3849 31.0814 30.3849C31.0798 30.3848 31.0787 30.3847 31.0772 30.3846L31.0782 30.3847L31.0799 30.3848L31.0814 30.3849C31.0812 30.3849 31.0815 30.3849 31.0814 30.3849C31.4092 30.4118 31.7034 30.5983 31.8673 30.8838C32.0321 31.171 32.0441 31.5211 31.8993 31.8189L31.5059 32.6278C31.5911 32.6624 31.6861 32.6977 31.7913 32.7328C32.2248 32.8777 32.6787 32.9696 32.9965 32.9962C33.2865 32.9704 33.6814 32.8809 34.0969 32.7335C34.2273 32.6873 34.3535 32.6375 34.4734 32.5855L34.1006 31.8189C33.9559 31.5211 33.9678 31.171 34.1326 30.8838C34.2965 30.5983 34.5903 30.4119 34.9181 30.385L34.9391 30.3827C34.9609 30.3801 34.9983 30.3752 35.0485 30.3669C35.1496 30.3502 35.2997 30.32 35.4785 30.268C35.8417 30.1624 36.2903 29.9762 36.6898 29.6583C37.0785 29.349 37.4328 28.907 37.6263 28.2471C37.7292 27.896 37.792 27.4643 37.779 26.9351Z" fill="#79818C"/>
<path fill-rule="evenodd" clip-rule="evenodd" d="M24 44C24 43.4477 24.4477 43 25 43H42C42.5523 43 43 43.4477 43 44C43 44.5523 42.5523 45 42 45H25C24.4477 45 24 44.5523 24 44Z" fill="#79818C"/>
<path fill-rule="evenodd" clip-rule="evenodd" d="M25 19L40 19C41.6569 19 43 20.3432 43 22L42.9999 34.6882C42.9999 36.4837 41.4764 37.7524 39.8486 37.8093C37.1899 37.9023 35.1652 38.717 33.7085 40.1797L33 40.8911L32.2914 40.1797C30.8348 38.717 28.81 37.9023 26.1513 37.8093C24.5235 37.7524 23 36.4837 23 34.6882V21C23 19.8954 23.8954 19 25 19ZM40 21L25 21V34.6882C25 35.2436 25.4998 35.7853 26.2213 35.8105C28.903 35.9044 31.199 36.6534 33 38.1258C34.8009 36.6534 37.097 35.9043 39.7787 35.8105C40.5002 35.7853 40.9999 35.2436 40.9999 34.6882L41 22C41 21.4477 40.5523 21 40 21Z" fill="#79818C"/>
</svg>
