<svg width="24" height="24" viewBox="0 0 24 24" fill="none" xmlns="http://www.w3.org/2000/svg">
    <path fill-rule="evenodd" clip-rule="evenodd" d="M24 12C24 18.6274 18.6274 24 12 24C5.37258 24 0 18.6274 0 12C0 5.37258 5.37258 -3.8147e-06 12 -3.8147e-06C18.6274 -3.8147e-06 24 5.37258 24 12ZM8.3337 15.2269C8.72422 15.5997 9.35739 15.5997 9.74791 15.2269L15.686 9.55874C16.0765 9.18597 16.0765 8.58158 15.686 8.20881C15.2955 7.83604 14.6623 7.83604 14.2718 8.20881L8.3337 13.877C7.94317 14.2498 7.94317 14.8542 8.3337 15.2269ZM8 9.34091C8 10.1317 8.67157 10.7727 9.5 10.7727C10.3284 10.7727 11 10.1317 11 9.34091C11 8.55014 10.3284 7.90909 9.5 7.90909C8.67157 7.90909 8 8.55014 8 9.34091ZM13 14.1136C13 14.9044 13.6716 15.5455 14.5 15.5455C15.3284 15.5455 16 14.9044 16 14.1136C16 13.3229 15.3284 12.6818 14.5 12.6818C13.6716 12.6818 13 13.3229 13 14.1136Z" fill="url(#paint0_linear)"/>
    <defs>
        <linearGradient id="paint0_linear" x1="12.4269" y1="-12.2134" x2="-12" y2="11.7866" gradientUnits="userSpaceOnUse">
            <stop stop-color="#006DB6"/>
            <stop offset="1" stop-color="#57A9E0"/>
        </linearGradient>
    </defs>
</svg>
