<svg width="64" height="64" viewBox="0 0 64 64" fill="none" xmlns="http://www.w3.org/2000/svg">
<path d="M64 32C64 14.3269 49.6731 0 32 0C14.3269 0 0 14.3269 0 32C0 49.6731 14.3269 64 32 64C49.6731 64 64 49.6731 64 32Z" fill="#F5F5F6"/>
<path d="M25.451 29.8303C27.8697 29.8303 29.8303 27.8697 29.8303 25.451C29.8303 23.0324 27.8697 21.0717 25.451 21.0717C23.0324 21.0717 21.0717 23.0324 21.0717 25.451C21.0717 27.8697 23.0324 29.8303 25.451 29.8303Z" stroke="#79818C" stroke-width="2"/>
<path d="M39.7959 44.1752C42.2145 44.1752 44.1752 42.2145 44.1752 39.7959C44.1752 37.3772 42.2145 35.4166 39.7959 35.4166C37.3772 35.4166 35.4165 37.3772 35.4165 39.7959C35.4165 42.2145 37.3772 44.1752 39.7959 44.1752Z" stroke="#79818C" stroke-width="2"/>
<path d="M21.8648 43.382L43.3821 21.8648" stroke="#79818C" stroke-width="2" stroke-linecap="round"/>
</svg>
