<svg width="24" height="24" fill="none" xmlns="http://www.w3.org/2000/svg"><path fill-rule="evenodd" clip-rule="evenodd" d="M24 12c0 6.627-5.373 12-12 12S0 18.627 0 12 5.373 0 12 0s12 5.373 12 12zm-11.875.197c1.597 0 2.89-2.33 2.89-4.318C15.016 5.89 13.723 5 12.126 5c-1.597 0-2.89.891-2.89 2.879 0 1.987 1.293 4.318 2.89 4.318zm4.063 2.063a2.546 2.546 0 01-.022-.01l-2.686-1.06a.83.83 0 00-.591 0c-.588.218-1.077.22-1.586.007a.792.792 0 00-.6.005l-2.627 1.053a.626.626 0 00-.095.039c-.542.28-.739.714-.73 1.292v1.878c0 .256.117.495.313.642 1.174.872 2.793 1.389 4.444 1.415h.276c1.649-.026 3.255-.543 4.409-1.417a.799.799 0 00.307-.636v-1.866c.008-.601-.192-1.033-.74-1.313a7.872 7.872 0 01-.072-.03z" fill="url(#test)"/><defs><linearGradient id="test" x1="12.427" y1="-12.213" x2="-12" y2="11.787" gradientUnits="userSpaceOnUse"><stop stop-color="#006DB6"/><stop offset="1" stop-color="#57A9E0"/></linearGradient></defs></svg>
